<svg width="27" height="22" viewBox="0 0 27 22" fill="none" xmlns="http://www.w3.org/2000/svg">
<g filter="url(#filter0_d_2081_1168)">
<path d="M22.4378 13.2069H21.7049V12.1476C21.7049 11.9526 21.5322 11.7945 21.3192 11.7945H19.7763C19.5632 11.7945 19.3906 11.9526 19.3906 12.1476V13.2069H18.5911C18.4033 12.0107 17.2768 11.0883 15.919 11.0883H15.3018C15.3018 11.0883 15.299 8.74836 15.2938 8.7251C15.3399 8.20164 15.1452 7.66354 14.7087 7.26396L12.6699 5.39758L15.084 3.18773C15.2035 3.07835 15.3006 2.95608 15.3754 2.82584H17.7706C17.9836 2.82584 18.1563 2.66777 18.1563 2.47274V2.1197H19.0563V2.47334C19.0563 2.59951 19.1299 2.71606 19.2492 2.77913L20.5864 3.48581C20.6461 3.51734 20.7126 3.53312 20.7793 3.53312C20.8459 3.53312 20.9125 3.51734 20.9721 3.48581L22.3093 2.7791C22.4938 2.6816 22.5571 2.46564 22.4505 2.29676C22.344 2.12788 22.1081 2.06999 21.9236 2.16753L20.7793 2.77226L19.8278 2.26943V1.26367L20.7793 0.760835L21.9236 1.36561C22.1081 1.46314 22.344 1.40525 22.4505 1.23637C22.5571 1.0675 22.4938 0.851534 22.3093 0.754037L20.9721 0.0473266C20.8528 -0.0157755 20.7057 -0.0157755 20.5864 0.0473266L19.2492 0.754037C19.1299 0.817106 19.0563 0.933651 19.0563 1.05982V1.41346H18.1563V1.06036C18.1563 0.865333 17.9836 0.707257 17.7706 0.707257H14.4559C13.8826 0.528451 13.222 0.647723 12.7656 1.06548L9.95941 3.63432C8.9207 3.8027 8.12904 4.6345 8.12904 5.63296C8.12904 6.30094 8.48342 6.89447 9.02893 7.2647C9.09743 7.35557 9.17555 7.44209 9.26379 7.5229L11.3763 9.45662V11.0883H10.9046C9.54673 11.0883 8.42026 12.0107 8.23246 13.2069H7.43298V12.1476C7.43298 11.9526 7.26029 11.7945 7.04724 11.7945H5.50434C5.29129 11.7945 5.1186 11.9526 5.1186 12.1476V13.2069H4.38574C4.17268 13.2068 4 13.3649 4 13.5599C4 13.755 4.17268 13.913 4.38574 13.913H22.4378C22.6508 13.913 22.8235 13.755 22.8235 13.5599C22.8235 13.3649 22.6508 13.2069 22.4378 13.2069ZM17.3848 1.41346V2.11967H15.5631C15.5619 1.87625 15.4964 1.63313 15.3669 1.41346H17.3848ZM6.66151 13.2069H5.89007V12.5007H6.66154L6.66151 13.2069ZM13.3111 1.56484C13.475 1.41478 13.6929 1.33215 13.9247 1.33215C14.1566 1.33215 14.3745 1.41478 14.5384 1.56484C14.8768 1.8746 14.8768 2.37861 14.5384 2.6884L12.3243 4.7152C12.0526 4.22661 11.5715 3.85153 10.9896 3.68992L13.3111 1.56484ZM8.9004 5.63296C8.9004 4.90286 9.5493 4.30886 10.3469 4.30886C11.1445 4.30886 11.7933 4.90286 11.7933 5.63296C11.7933 6.36306 11.1445 6.95706 10.3469 6.95706C9.54926 6.95706 8.9004 6.36306 8.9004 5.63296ZM10.5021 7.65772C11.4357 7.59828 12.2118 7.00795 12.4715 6.21478L14.1632 7.76332C14.652 8.21076 14.652 8.93878 14.1632 9.38621C13.9264 9.60295 13.6116 9.72232 13.2768 9.72232C12.9419 9.72232 12.6271 9.60295 12.3903 9.38621L10.5021 7.65772ZM14.5304 10.0302V11.0884H12.1477V10.1135C12.4878 10.3227 12.8821 10.4277 13.2768 10.4277C13.7206 10.4277 14.1642 10.2949 14.5304 10.0302ZM9.01463 13.2069C9.19386 12.402 9.97316 11.7945 10.9046 11.7945H15.919C16.8504 11.7945 17.6297 12.402 17.8089 13.2069H9.01463ZM20.9335 13.2069H20.162V12.5007H20.9335V13.2069Z" fill="url(#paint0_linear_2081_1168)"/>
<path d="M10.3462 5.27979C10.1335 5.27979 9.96045 5.4382 9.96045 5.63289C9.96045 5.82758 10.1335 5.98599 10.3462 5.98599C10.5589 5.98599 10.7319 5.82758 10.7319 5.63289C10.7319 5.4382 10.5589 5.27979 10.3462 5.27979Z" fill="url(#paint1_linear_2081_1168)"/>
</g>
<path d="M6.54537 20.0435C6.49204 20.0435 6.46537 20.0168 6.46537 19.9635V14.5235C6.46537 14.4701 6.49204 14.4435 6.54537 14.4435H8.48137C9.03604 14.4435 9.47871 14.5901 9.80937 14.8835C10.14 15.1715 10.3054 15.5581 10.3054 16.0435V18.4435C10.3054 18.9288 10.14 19.3181 9.80937 19.6115C9.47871 19.8995 9.03604 20.0435 8.48137 20.0435H6.54537ZM7.23337 19.3475C7.23337 19.3688 7.24404 19.3795 7.26537 19.3795H8.51338C8.82271 19.3795 9.06804 19.2861 9.24937 19.0995C9.43604 18.9075 9.53204 18.6515 9.53737 18.3315V16.1555C9.53737 15.8355 9.44404 15.5821 9.25738 15.3955C9.07604 15.2035 8.82804 15.1075 8.51338 15.1075H7.26537C7.24404 15.1075 7.23337 15.1181 7.23337 15.1395V19.3475ZM13.9951 20.1155C13.6111 20.1155 13.2697 20.0408 12.9711 19.8915C12.6777 19.7368 12.4484 19.5208 12.2831 19.2435C12.1231 18.9608 12.0431 18.6381 12.0431 18.2755V16.2035C12.0431 15.8408 12.1231 15.5235 12.2831 15.2515C12.4484 14.9741 12.6777 14.7608 12.9711 14.6115C13.2697 14.4568 13.6111 14.3795 13.9951 14.3795C14.3791 14.3795 14.7177 14.4541 15.0111 14.6035C15.3044 14.7475 15.5311 14.9528 15.6911 15.2195C15.8564 15.4861 15.9391 15.7955 15.9391 16.1475V16.1555C15.9391 16.1821 15.9311 16.2035 15.9151 16.2195C15.8991 16.2355 15.8804 16.2435 15.8591 16.2435L15.2511 16.2755C15.1977 16.2755 15.1711 16.2515 15.1711 16.2035V16.1795C15.1711 15.8381 15.0644 15.5635 14.8511 15.3555C14.6377 15.1475 14.3524 15.0435 13.9951 15.0435C13.6377 15.0435 13.3497 15.1475 13.1311 15.3555C12.9177 15.5635 12.8111 15.8381 12.8111 16.1795V18.3075C12.8111 18.6488 12.9177 18.9235 13.1311 19.1315C13.3497 19.3395 13.6377 19.4435 13.9951 19.4435C14.3524 19.4435 14.6377 19.3395 14.8511 19.1315C15.0644 18.9235 15.1711 18.6488 15.1711 18.3075V18.2915C15.1711 18.2435 15.1977 18.2195 15.2511 18.2195L15.8591 18.2515C15.9124 18.2515 15.9391 18.2781 15.9391 18.3315C15.9391 18.6835 15.8564 18.9955 15.6911 19.2675C15.5311 19.5341 15.3044 19.7421 15.0111 19.8915C14.7177 20.0408 14.3791 20.1155 13.9951 20.1155ZM21.2076 20.0435C21.1596 20.0435 21.1276 20.0221 21.1116 19.9795L20.8236 19.0435C20.8182 19.0275 20.8076 19.0195 20.7916 19.0195H18.5436C18.5276 19.0195 18.5169 19.0275 18.5116 19.0435L18.2236 19.9795C18.2076 20.0221 18.1756 20.0435 18.1276 20.0435H17.4796C17.4209 20.0435 17.3996 20.0141 17.4156 19.9555L19.1676 14.5075C19.1836 14.4648 19.2156 14.4435 19.2636 14.4435H20.0636C20.1116 14.4435 20.1436 14.4648 20.1596 14.5075L21.9276 19.9555L21.9356 19.9875C21.9356 20.0248 21.9116 20.0435 21.8636 20.0435H21.2076ZM18.7116 18.3715C18.7062 18.3821 18.7062 18.3928 18.7116 18.4035C18.7222 18.4088 18.7329 18.4115 18.7436 18.4115H20.5836C20.5942 18.4115 20.6022 18.4088 20.6076 18.4035C20.6182 18.3928 20.6209 18.3821 20.6156 18.3715L19.6876 15.4035C19.6822 15.3928 19.6742 15.3875 19.6636 15.3875C19.6529 15.3875 19.6449 15.3928 19.6396 15.4035L18.7116 18.3715Z" fill="url(#paint2_linear_2081_1168)"/>
<defs>
<filter id="filter0_d_2081_1168" x="0" y="0" width="26.8235" height="21.913" filterUnits="userSpaceOnUse" color-interpolation-filters="sRGB">
<feFlood flood-opacity="0" result="BackgroundImageFix"/>
<feColorMatrix in="SourceAlpha" type="matrix" values="0 0 0 0 0 0 0 0 0 0 0 0 0 0 0 0 0 0 127 0" result="hardAlpha"/>
<feOffset dy="4"/>
<feGaussianBlur stdDeviation="2"/>
<feComposite in2="hardAlpha" operator="out"/>
<feColorMatrix type="matrix" values="0 0 0 0 0 0 0 0 0 0 0 0 0 0 0 0 0 0 0.25 0"/>
<feBlend mode="normal" in2="BackgroundImageFix" result="effect1_dropShadow_2081_1168"/>
<feBlend mode="normal" in="SourceGraphic" in2="effect1_dropShadow_2081_1168" result="shape"/>
</filter>
<linearGradient id="paint0_linear_2081_1168" x1="20.4706" y1="0.347827" x2="11.1932" y2="16.6651" gradientUnits="userSpaceOnUse">
<stop stop-color="#790D83"/>
<stop offset="1" stop-color="#7A5CFF"/>
</linearGradient>
<linearGradient id="paint1_linear_2081_1168" x1="10.6355" y1="5.29744" x2="10.1196" y2="6.03013" gradientUnits="userSpaceOnUse">
<stop stop-color="#790D83"/>
<stop offset="1" stop-color="#7A5CFF"/>
</linearGradient>
<linearGradient id="paint2_linear_2081_1168" x1="21.5" y1="13.2174" x2="18.8044" y2="23.2921" gradientUnits="userSpaceOnUse">
<stop stop-color="#790D83"/>
<stop offset="1" stop-color="#7A5CFF"/>
</linearGradient>
</defs>
</svg>
