<svg width="20" height="20" viewBox="0 0 20 20" fill="none" xmlns="http://www.w3.org/2000/svg">
<path d="M4.47322 0H1.36429C0.611863 0 0 0.592854 0 1.3219V4.33024C0 5.05929 0.611863 5.65214 1.36429 5.65214H4.46908C5.22151 5.65214 5.83337 5.05929 5.83337 4.33024V1.3179C5.83751 0.592854 5.22564 0 4.47322 0ZM4.72127 4.33024C4.72127 4.46243 4.60965 4.57058 4.47322 4.57058H1.36429C1.22786 4.57058 1.11624 4.46243 1.11624 4.33024V1.3179C1.11624 1.18571 1.22786 1.07755 1.36429 1.07755H4.46908C4.60551 1.07755 4.71714 1.18571 4.71714 1.3179V4.33024H4.72127Z" fill="url(#paint0_linear_1313_2574)"/>
<path d="M4.47322 6.95605H1.36429C0.611863 6.95605 0 7.59451 0 8.37964V11.6194C0 12.4045 0.611863 13.043 1.36429 13.043H4.46908C5.22151 13.043 5.83337 12.4045 5.83337 11.6194V8.37964C5.83751 7.59451 5.22564 6.95605 4.47322 6.95605ZM4.72127 11.6194C4.72127 11.7617 4.60965 11.8782 4.47322 11.8782H1.36429C1.22786 11.8782 1.11624 11.7617 1.11624 11.6194V8.37964C1.11624 8.23728 1.22786 8.12081 1.36429 8.12081H4.46908C4.60551 8.12081 4.71714 8.23728 4.71714 8.37964V11.6194H4.72127Z" fill="url(#paint1_linear_1313_2574)"/>
<path d="M4.47322 14.3477H1.36429C0.611863 14.3477 0 14.9405 0 15.6696V18.6779C0 19.4069 0.611863 19.9998 1.36429 19.9998H4.46908C5.22151 19.9998 5.83337 19.4069 5.83337 18.6779V15.6696C5.83751 14.9405 5.22564 14.3477 4.47322 14.3477ZM4.72127 18.6819C4.72127 18.8141 4.60965 18.9222 4.47322 18.9222H1.36429C1.22786 18.9222 1.11624 18.8141 1.11624 18.6819V15.6736C1.11624 15.5414 1.22786 15.4332 1.36429 15.4332H4.46908C4.60551 15.4332 4.71714 15.5414 4.71714 15.6736V18.6819H4.72127Z" fill="url(#paint2_linear_1313_2574)"/>
<path d="M11.5516 6.95605H8.44681C7.69439 6.95605 7.08252 7.59451 7.08252 8.37964V11.6194C7.08252 12.4045 7.69439 13.043 8.44681 13.043H11.5516C12.304 13.043 12.9159 12.4045 12.9159 11.6194V8.37964C12.9118 7.59451 12.304 6.95605 11.5516 6.95605ZM11.7955 11.6194C11.7955 11.7617 11.6839 11.8782 11.5475 11.8782H8.44268C8.30625 11.8782 8.19463 11.7617 8.19463 11.6194V8.37964C8.19463 8.23728 8.30625 8.12081 8.44268 8.12081H11.5475C11.6839 8.12081 11.7955 8.23728 11.7955 8.37964V11.6194Z" fill="url(#paint3_linear_1313_2574)"/>
<path d="M11.5516 14.3477H8.44681C7.69439 14.3477 7.08252 14.9405 7.08252 15.6696V18.6779C7.08252 19.4069 7.69439 19.9998 8.44681 19.9998H11.5516C12.304 19.9998 12.9159 19.4069 12.9159 18.6779V15.6696C12.9118 14.9405 12.304 14.3477 11.5516 14.3477ZM11.7955 18.6819C11.7955 18.8141 11.6839 18.9222 11.5475 18.9222H8.44268C8.30625 18.9222 8.19463 18.8141 8.19463 18.6819V15.6736C8.19463 15.5414 8.30625 15.4332 8.44268 15.4332H11.5475C11.6839 15.4332 11.7955 15.5414 11.7955 15.6736V18.6819Z" fill="url(#paint4_linear_1313_2574)"/>
<path d="M18.6356 6.95605H15.5308C14.7784 6.95605 14.1665 7.59451 14.1665 8.37964V11.6194C14.1665 12.4045 14.7784 13.043 15.5308 13.043H18.6356C19.388 13.043 19.9999 12.4045 19.9999 11.6194V8.37964C19.9958 7.59451 19.3839 6.95605 18.6356 6.95605ZM18.8795 11.6194C18.8795 11.7617 18.7679 11.8782 18.6315 11.8782H15.5267C15.3902 11.8782 15.2786 11.7617 15.2786 11.6194V8.37964C15.2786 8.23728 15.3902 8.12081 15.5267 8.12081H18.6315C18.7679 8.12081 18.8795 8.23728 18.8795 8.37964V11.6194Z" fill="url(#paint5_linear_1313_2574)"/>
<path d="M18.6356 14.3477H15.5308C14.7784 14.3477 14.1665 14.9405 14.1665 15.6696V18.6779C14.1665 19.4069 14.7784 19.9998 15.5308 19.9998H18.6356C19.388 19.9998 19.9999 19.4069 19.9999 18.6779V15.6696C19.9958 14.9405 19.3839 14.3477 18.6356 14.3477ZM18.8795 18.6819C18.8795 18.8141 18.7679 18.9222 18.6315 18.9222H15.5267C15.3902 18.9222 15.2786 18.8141 15.2786 18.6819V15.6736C15.2786 15.5414 15.3902 15.4332 15.5267 15.4332H18.6315C18.7679 15.4332 18.8795 15.5414 18.8795 15.6736V18.6819Z" fill="url(#paint6_linear_1313_2574)"/>
<path d="M18.6357 0H15.5309C14.7785 0 14.1666 0.592854 14.1666 1.3219V4.33024C14.1666 5.05929 14.7785 5.65214 15.5309 5.65214H18.6357C19.3881 5.65214 20 5.05929 20 4.33024V1.3179C19.9959 0.592854 19.384 0 18.6357 0ZM18.8796 4.33024C18.8796 4.46243 18.768 4.57058 18.6316 4.57058H15.5268C15.3903 4.57058 15.2787 4.46243 15.2787 4.33024V1.3179C15.2787 1.18571 15.3903 1.07755 15.5268 1.07755H18.6316C18.768 1.07755 18.8796 1.18571 18.8796 1.3179V4.33024Z" fill="url(#paint7_linear_1313_2574)"/>
<path d="M11.5518 0H8.447C7.69457 0 7.0827 0.592854 7.0827 1.3219V4.33024C7.0827 5.05929 7.69457 5.65214 8.447 5.65214H11.5518C12.3042 5.65214 12.9161 5.05929 12.9161 4.33024V1.3179C12.912 0.592854 12.3042 0 11.5518 0ZM11.7957 4.33024C11.7957 4.46243 11.6841 4.57058 11.5477 4.57058H8.44286C8.30643 4.57058 8.19481 4.46243 8.19481 4.33024V1.3179C8.19481 1.18571 8.30643 1.07755 8.44286 1.07755H11.5477C11.6841 1.07755 11.7957 1.18571 11.7957 1.3179V4.33024Z" fill="url(#paint8_linear_1313_2574)"/>
<defs>
<linearGradient id="paint0_linear_1313_2574" x1="-1.58499e-08" y1="1.53079" x2="5.7753" y2="2.27561" gradientUnits="userSpaceOnUse">
<stop stop-color="#790D83"/>
<stop offset="1" stop-color="#7A5CFF"/>
</linearGradient>
<linearGradient id="paint1_linear_1313_2574" x1="-1.58499e-08" y1="8.6046" x2="5.78835" y2="9.29777" gradientUnits="userSpaceOnUse">
<stop stop-color="#790D83"/>
<stop offset="1" stop-color="#7A5CFF"/>
</linearGradient>
<linearGradient id="paint2_linear_1313_2574" x1="-1.58499e-08" y1="15.8784" x2="5.7753" y2="16.6233" gradientUnits="userSpaceOnUse">
<stop stop-color="#790D83"/>
<stop offset="1" stop-color="#7A5CFF"/>
</linearGradient>
<linearGradient id="paint3_linear_1313_2574" x1="7.08252" y1="8.6046" x2="12.8709" y2="9.29777" gradientUnits="userSpaceOnUse">
<stop stop-color="#790D83"/>
<stop offset="1" stop-color="#7A5CFF"/>
</linearGradient>
<linearGradient id="paint4_linear_1313_2574" x1="7.08252" y1="15.8784" x2="12.8578" y2="16.6233" gradientUnits="userSpaceOnUse">
<stop stop-color="#790D83"/>
<stop offset="1" stop-color="#7A5CFF"/>
</linearGradient>
<linearGradient id="paint5_linear_1313_2574" x1="14.1665" y1="8.6046" x2="19.9549" y2="9.29777" gradientUnits="userSpaceOnUse">
<stop stop-color="#790D83"/>
<stop offset="1" stop-color="#7A5CFF"/>
</linearGradient>
<linearGradient id="paint6_linear_1313_2574" x1="14.1665" y1="15.8784" x2="19.9418" y2="16.6233" gradientUnits="userSpaceOnUse">
<stop stop-color="#790D83"/>
<stop offset="1" stop-color="#7A5CFF"/>
</linearGradient>
<linearGradient id="paint7_linear_1313_2574" x1="14.1666" y1="1.53079" x2="19.9419" y2="2.27561" gradientUnits="userSpaceOnUse">
<stop stop-color="#790D83"/>
<stop offset="1" stop-color="#7A5CFF"/>
</linearGradient>
<linearGradient id="paint8_linear_1313_2574" x1="7.0827" y1="1.53079" x2="12.858" y2="2.27561" gradientUnits="userSpaceOnUse">
<stop stop-color="#790D83"/>
<stop offset="1" stop-color="#7A5CFF"/>
</linearGradient>
</defs>
</svg>
