<svg width="21" height="20" viewBox="0 0 21 20" fill="none" xmlns="http://www.w3.org/2000/svg">
<g clip-path="url(#clip0_1773_2781)">
<path d="M20.0781 10C20.0781 11.9778 19.4916 13.9112 18.3928 15.5557C17.294 17.2002 15.7322 18.4819 13.905 19.2388C12.0777 19.9957 10.067 20.1937 8.12723 19.8079C6.18742 19.422 4.40559 18.4696 3.00706 17.0711C1.60854 15.6725 0.656129 13.8907 0.270277 11.9509C-0.115575 10.0111 0.0824578 8.00043 0.839334 6.17317C1.59621 4.3459 2.87794 2.78412 4.52243 1.6853C6.16692 0.58649 8.10032 0 10.0781 0C12.7303 0 15.2738 1.05357 17.1492 2.92893C19.0246 4.8043 20.0781 7.34783 20.0781 10V10Z" fill="#F7931A"/>
<path fill-rule="evenodd" clip-rule="evenodd" d="M7.18572 4.56636L9.4839 5.18182L9.99754 3.26727L11.1466 3.57909L10.653 5.41455L11.5903 5.66636L12.0848 3.81091L13.2539 4.12364L12.7503 5.98909C12.7503 5.98909 14.6594 6.41182 15.1084 7.96455C15.5575 9.51727 14.1212 10.3327 13.6775 10.3636C13.6775 10.3636 15.3503 11.2809 14.7757 13.0855C14.2012 14.89 12.4375 15.2127 10.5821 14.7991L10.0784 16.7336L8.90936 16.4209L9.42299 14.5164L8.49572 14.2636L7.98208 16.1818L6.82208 15.87L7.33663 13.9609L4.97754 13.3245L5.57208 12.0045C5.57208 12.0045 6.23754 12.1864 6.48936 12.2464C6.74118 12.3064 6.90299 12.0445 6.9739 11.7827C7.04481 11.5209 8.11299 7.18182 8.2139 6.82455C8.31481 6.46727 8.2739 6.18818 7.85027 6.07818C7.42663 5.96818 6.85027 5.79636 6.85027 5.79636L7.18572 4.56636ZM9.5039 10.3127L8.86754 12.8427C8.86754 12.8427 12.023 13.9818 12.4266 12.3791C12.8303 10.7764 9.5039 10.3127 9.5039 10.3127ZM9.79663 9.11273L10.4212 6.79455C10.4212 6.79455 13.123 7.27818 12.7903 8.56818C12.4575 9.85818 10.8648 9.36364 9.79663 9.11273Z" fill="white"/>
</g>
<defs>
<clipPath id="clip0_1773_2781">
<rect width="20" height="20" fill="white" transform="translate(0.078125)"/>
</clipPath>
</defs>
</svg>
