<svg width="17" height="17" viewBox="0 0 17 17" fill="none" xmlns="http://www.w3.org/2000/svg">
<path d="M12.3543 0.40387C12.6826 0.40387 13.0076 0.468537 13.3109 0.59418C13.6143 0.719823 13.8898 0.903981 14.122 1.13614C14.3541 1.3683 14.5383 1.64391 14.6639 1.94724C14.7895 2.25057 14.8542 2.57567 14.8542 2.90399V6.40617C14.5098 6.42182 14.1711 6.4994 13.8542 6.63518V4.40407H1.85445V11.9034C1.85445 12.3013 2.01248 12.6828 2.29378 12.9641C2.57508 13.2455 2.9566 13.4035 3.35442 13.4035H7.32935C7.31335 13.4535 7.29935 13.5065 7.28635 13.5585L7.07535 14.4036H3.35542C2.69239 14.4036 2.05652 14.1402 1.58769 13.6713C1.11886 13.2024 0.855469 12.5665 0.855469 11.9034V2.90299C0.855734 2.24009 1.11924 1.60443 1.58804 1.13579C2.05685 0.667137 2.69257 0.40387 3.35542 0.40387H12.3543ZM12.3543 1.40392H3.35442C2.95678 1.40418 2.57551 1.56234 2.29443 1.84363C2.01335 2.12492 1.85545 2.50632 1.85545 2.90399V3.40402H13.8552V2.90399C13.8552 2.50615 13.6972 2.1246 13.4159 1.84328C13.1346 1.56196 12.7531 1.40392 12.3553 1.40392H12.3543ZM8.83432 12.7805L13.6632 7.95024C14.0141 7.59961 14.4899 7.40273 14.9859 7.40292C15.4819 7.4031 15.9576 7.60034 16.3082 7.95124C16.6588 8.30214 16.8557 8.77796 16.8555 9.27401C16.8553 9.77007 16.6581 10.2457 16.3072 10.5964L11.4783 15.4246C11.1969 15.7061 10.8444 15.9059 10.4583 16.0026L8.96032 16.3777C8.81133 16.4146 8.65532 16.4125 8.50743 16.3713C8.35954 16.3302 8.2248 16.2515 8.1163 16.1429C8.00781 16.0343 7.92925 15.8995 7.88825 15.7515C7.84726 15.6036 7.84522 15.4476 7.88234 15.2986L8.25633 13.8005C8.35333 13.4145 8.55233 13.0615 8.83432 12.7805Z" fill="white"/>
</svg>
