<svg width="99" height="100" viewBox="0 0 99 100" fill="none" xmlns="http://www.w3.org/2000/svg">
<g clip-path="url(#clip0_1512_1001)">
<path d="M120.555 60.4675C120.555 72.3344 117.036 83.9348 110.443 93.8017C103.85 103.669 94.4793 111.359 83.5157 115.9C72.5522 120.442 60.4882 121.63 48.8493 119.315C37.2104 117 26.5195 111.285 18.1283 102.894C9.73716 94.5028 4.02271 83.8118 1.7076 72.1729C-0.607516 60.5341 0.580684 48.4701 5.12194 37.5065C9.6632 26.543 17.3536 17.1722 27.2205 10.5794C37.0875 3.98647 48.6878 0.467529 60.5547 0.467529C76.4677 0.467529 91.7289 6.78894 102.981 18.0411C114.233 29.2933 120.555 44.5545 120.555 60.4675V60.4675Z" fill="#F7931A" fill-opacity="0.3"/>
<path fill-rule="evenodd" clip-rule="evenodd" d="M43.1983 27.8657L56.9874 31.5584L60.0692 20.0712L66.9638 21.9421L64.0019 32.9548L69.6256 34.4657L72.5929 23.333L79.6074 25.2093L76.5856 36.4021C76.5856 36.4021 88.0401 38.9384 90.7347 48.2548C93.4292 57.5712 84.811 62.4639 82.1492 62.6493C82.1492 62.6493 92.1856 68.153 88.7383 78.9803C85.291 89.8075 74.7092 91.7439 63.5765 89.2621L60.5547 100.869L53.5401 98.993L56.6219 87.5657L51.0583 86.0493L47.9765 97.5584L41.0165 95.6875L44.1038 84.233L29.9492 80.4148L33.5165 72.4948C33.5165 72.4948 37.5092 73.5857 39.0201 73.9457C40.531 74.3057 41.5019 72.7348 41.9274 71.1639C42.3529 69.593 48.7619 43.5584 49.3674 41.4148C49.9729 39.2712 49.7274 37.5966 47.1856 36.9366C44.6438 36.2766 41.1856 35.2457 41.1856 35.2457L43.1983 27.8657ZM57.1074 62.3439L53.2892 77.5239C53.2892 77.5239 72.2219 84.3584 74.6438 74.7421C77.0656 65.1257 57.1074 62.3439 57.1074 62.3439ZM58.8638 55.1439L62.611 41.2348C62.611 41.2348 78.8219 44.1366 76.8256 51.8766C74.8292 59.6166 65.2729 56.6493 58.8638 55.1439Z" fill="white" fill-opacity="0.3"/>
</g>
<defs>
<clipPath id="clip0_1512_1001">
<rect width="120" height="120" fill="white" transform="translate(0.554688 0.467529)"/>
</clipPath>
</defs>
</svg>
