<svg width="24" height="23" viewBox="0 0 24 23" fill="none" xmlns="http://www.w3.org/2000/svg">
<path d="M11.8692 20.7C11.9418 20.7 12.0145 20.6808 12.0872 20.6425C12.1599 20.6042 12.2144 20.5658 12.2508 20.5275L21.1922 11.0975C21.4103 10.8675 21.5695 10.6088 21.6698 10.3212C21.7694 10.0338 21.8192 9.74625 21.8192 9.45875C21.8192 9.15208 21.7694 8.8596 21.6698 8.5813C21.5695 8.30377 21.4103 8.05958 21.1922 7.84875L16.5579 2.96125C16.358 2.73125 16.1265 2.56335 15.8633 2.45755C15.5995 2.35252 15.3221 2.3 15.0313 2.3C14.7587 2.3 14.4861 2.35252 14.2135 2.45755C13.9409 2.56335 13.6956 2.73125 13.4775 2.96125L13.1776 3.2775L15.1949 5.43375C15.4675 5.70208 15.6674 6.00875 15.7946 6.35375C15.9219 6.69875 15.9855 7.06292 15.9855 7.44625C15.9855 8.25125 15.7267 8.92668 15.2091 9.47255C14.6908 10.0192 14.05 10.2925 13.2867 10.2925C12.9232 10.2925 12.5736 10.2254 12.2377 10.0912C11.9011 9.95708 11.6056 9.75583 11.3512 9.4875L9.30668 7.36L4.53612 12.3912C4.4816 12.4487 4.44053 12.5112 4.4129 12.5787C4.38601 12.6454 4.37256 12.7171 4.37256 12.7937C4.37256 12.9471 4.42708 13.0859 4.53612 13.2101C4.64516 13.335 4.77238 13.3975 4.91777 13.3975C4.99046 13.3975 5.06315 13.3783 5.13585 13.34C5.20854 13.3017 5.26306 13.2633 5.29941 13.225L9.00681 9.315L10.5334 10.925L6.85325 14.835C6.79873 14.8925 6.75766 14.9546 6.73003 15.0213C6.70314 15.0888 6.68969 15.1608 6.68969 15.2375C6.68969 15.3908 6.74421 15.525 6.85325 15.64C6.96229 15.755 7.08951 15.8125 7.23489 15.8125C7.30759 15.8125 7.38028 15.7933 7.45298 15.755C7.52567 15.7167 7.58019 15.6783 7.61654 15.64L11.3239 11.7587L12.8505 13.3687L9.17038 17.2787C9.11586 17.3171 9.07515 17.3746 9.04825 17.4512C9.02063 17.5279 9.00681 17.6046 9.00681 17.6812C9.00681 17.8346 9.06134 17.9688 9.17038 18.0837C9.27942 18.1987 9.40663 18.2563 9.55202 18.2563C9.62472 18.2563 9.69305 18.2417 9.75702 18.2125C9.82026 18.1842 9.87915 18.1413 9.93367 18.0837L13.6411 14.2025L15.1677 15.8125L11.4602 19.7225C11.4057 19.78 11.365 19.8421 11.3381 19.9088C11.3105 19.9763 11.2967 20.0483 11.2967 20.125C11.2967 20.2783 11.3559 20.4125 11.4744 20.5275C11.5922 20.6425 11.7238 20.7 11.8692 20.7ZM11.8419 23C11.1695 23 10.5745 22.765 10.0569 22.295C9.53857 21.8258 9.23398 21.2367 9.14312 20.5275C8.52522 20.4317 8.00727 20.1633 7.58928 19.7225C7.17129 19.2817 6.91686 18.7354 6.82599 18.0837C6.20809 17.9879 5.69487 17.715 5.28632 17.2649C4.87706 16.8141 4.62699 16.2725 4.53612 15.64C3.84553 15.5442 3.28214 15.2279 2.84598 14.6912C2.40981 14.1546 2.19173 13.5221 2.19173 12.7937C2.19173 12.4104 2.26006 12.0413 2.39673 11.6863C2.53267 11.3321 2.72785 11.0208 2.98228 10.7525L9.30668 4.11125L12.8778 7.8775C12.9141 7.935 12.9687 7.97793 13.0413 8.0063C13.114 8.03543 13.1867 8.05 13.2594 8.05C13.423 8.05 13.5593 7.99748 13.6683 7.89245C13.7774 7.78665 13.8319 7.6475 13.8319 7.475C13.8319 7.39833 13.8184 7.32167 13.7915 7.245C13.7639 7.16833 13.7229 7.11083 13.6683 7.0725L9.7701 2.96125C9.5702 2.73125 9.3383 2.56335 9.07442 2.45755C8.81127 2.35252 8.5343 2.3 8.24353 2.3C7.97092 2.3 7.69832 2.35252 7.42572 2.45755C7.15311 2.56335 6.90777 2.73125 6.68969 2.96125L2.84598 7.04375C2.68242 7.21625 2.54612 7.4175 2.43707 7.6475C2.32803 7.8775 2.25534 8.1075 2.21899 8.3375C2.18264 8.5675 2.18264 8.8021 2.21899 9.0413C2.25534 9.28127 2.32803 9.50667 2.43707 9.7175L0.855974 11.385C0.547024 10.9442 0.319855 10.46 0.174466 9.93255C0.0290777 9.40585 -0.025443 8.87417 0.0109041 8.3375C0.0472513 7.80083 0.174466 7.27835 0.392549 6.77005C0.610632 6.26252 0.910495 5.8075 1.29214 5.405L5.13585 1.35125C5.57201 0.910417 6.05834 0.575 6.59482 0.345C7.13058 0.115 7.68015 0 8.24353 0C8.80691 0 9.35647 0.115 9.89223 0.345C10.4287 0.575 10.906 0.910417 11.3239 1.35125L11.6238 1.6675L11.9237 1.35125C12.3598 0.910417 12.8458 0.575 13.3816 0.345C13.918 0.115 14.468 0 15.0313 0C15.5947 0 16.1447 0.115 16.6811 0.345C17.2169 0.575 17.6938 0.910417 18.1118 1.35125L22.7188 6.21C23.1368 6.65083 23.4548 7.15875 23.6729 7.73375C23.891 8.30875 24 8.89333 24 9.4875C24 10.0817 23.891 10.6613 23.6729 11.2263C23.4548 11.7921 23.1368 12.2954 22.7188 12.7362L13.7774 22.1375C13.5229 22.4058 13.2274 22.6167 12.8909 22.77C12.555 22.9233 12.2054 23 11.8419 23Z" fill="#D9D9D9"/>
</svg>
