<svg width="20" height="19" viewBox="0 0 20 19" fill="none" xmlns="http://www.w3.org/2000/svg">
<path d="M11.1111 9.07778L13.8889 11.7167C14.0926 11.9102 14.1944 12.1565 14.1944 12.4556C14.1944 12.7546 14.0926 13.0009 13.8889 13.1944C13.6852 13.388 13.4259 13.4847 13.1111 13.4847C12.7963 13.4847 12.537 13.388 12.3333 13.1944L9.22222 10.2389C9.11111 10.1333 9.02778 10.0144 8.97222 9.88211C8.91667 9.75052 8.88889 9.61435 8.88889 9.47361V5.27778C8.88889 4.9787 8.99556 4.72783 9.20889 4.52517C9.42148 4.3232 9.68519 4.22222 10 4.22222C10.3148 4.22222 10.5789 4.3232 10.7922 4.52517C11.0048 4.72783 11.1111 4.9787 11.1111 5.27778V9.07778ZM10 19C7.75926 19 5.75 18.3709 3.97222 17.1127C2.19444 15.8551 1 14.2148 0.388889 12.1917C0.296296 11.875 0.328889 11.5759 0.486667 11.2944C0.643704 11.013 0.888889 10.837 1.22222 10.7667C1.53704 10.6963 1.81963 10.7621 2.07 10.9641C2.31963 11.1667 2.49074 11.4176 2.58333 11.7167C3.06481 13.2648 3.99556 14.5139 5.37556 15.4639C6.75482 16.4139 8.2963 16.8889 10 16.8889C12.1667 16.8889 14.0044 16.1718 15.5133 14.7377C17.023 13.3042 17.7778 11.5583 17.7778 9.5C17.7778 7.44167 17.023 5.69543 15.5133 4.26128C14.0044 2.82783 12.1667 2.11111 10 2.11111C8.72222 2.11111 7.52778 2.39259 6.41667 2.95556C5.30556 3.51852 4.37037 4.29259 3.61111 5.27778H5.55556C5.87037 5.27778 6.13445 5.37876 6.34778 5.58072C6.56037 5.78339 6.66667 6.03426 6.66667 6.33333C6.66667 6.63241 6.56037 6.88293 6.34778 7.08489C6.13445 7.28756 5.87037 7.38889 5.55556 7.38889H1.11111C0.796296 7.38889 0.532593 7.28756 0.32 7.08489C0.106667 6.88293 0 6.63241 0 6.33333V2.11111C0 1.81204 0.106667 1.56117 0.32 1.3585C0.532593 1.15654 0.796296 1.05556 1.11111 1.05556C1.42593 1.05556 1.69 1.15654 1.90333 1.3585C2.11593 1.56117 2.22222 1.81204 2.22222 2.11111V3.53611C3.16667 2.41019 4.31963 1.53935 5.68111 0.923611C7.04185 0.30787 8.48148 0 10 0C11.3889 0 12.69 0.250518 13.9033 0.751555C15.1159 1.2533 16.1715 1.93061 17.07 2.7835C17.9678 3.63709 18.6807 4.63987 19.2089 5.79183C19.7363 6.9445 20 8.18056 20 9.5C20 10.8194 19.7363 12.0551 19.2089 13.2071C18.6807 14.3598 17.9678 15.3626 17.07 16.2154C16.1715 17.069 15.1159 17.7467 13.9033 18.2484C12.69 18.7495 11.3889 19 10 19Z" fill="#D9D9D9"/>
</svg>
