<svg width="1194" height="90" viewBox="0 0 1194 90" fill="none" xmlns="http://www.w3.org/2000/svg">
<path d="M72.9372 17.0951C54.9727 8.25918 28.487 3.16826 11.0636 0.880861C5.2672 0.119894 0.279785 4.70443 0.279785 10.5506V32.5038C0.279785 38.2463 5.1054 43.039 10.8324 43.4608C25.4427 44.5369 51.969 47.7986 82.5335 54.3379C123.206 63.0399 149.577 53.7296 187.724 40.2619L189.006 39.8091C227.848 26.0988 262.121 35.5119 300.049 35.9211C337.977 36.3304 340.262 42.0601 386.415 39.8091C432.569 37.5582 442.622 45.5388 490.146 45.5388C537.671 45.5388 561.89 53.5194 592.506 61.0908C623.123 68.6621 649.17 75.2103 701.264 86.0558C753.358 96.9012 749.702 81.7585 806.366 78.0751C863.03 74.3918 867.599 65.7973 890.904 57.8167C914.21 49.8361 975.443 45.5388 1029.36 31.8285C1083.29 18.1182 1092.43 23.234 1119.84 25.6896C1138.07 27.322 1166.39 28.5022 1184.36 29.0894C1189.58 29.2598 1193.87 26.7419 1193.87 21.523C1193.87 16.552 1189.95 10.7967 1184.99 10.5515C1164.15 9.5223 1143.55 7.86783 1107.51 3.38478C1066.38 -1.731 1027.99 17.0951 990.066 25.6896C952.138 34.2841 897.302 37.9674 880.394 50.2453C863.487 62.5232 825.558 61.9093 797.227 62.9324C768.895 63.9556 756.1 70.0945 715.887 69.0714C675.674 68.0482 685.27 61.9093 649.17 57.8167C613.07 53.724 614.441 51.6777 584.738 45.5388C555.035 39.3999 534.472 36.535 465.927 31.2146C397.382 25.8942 386.415 30.8054 353.971 25.6896C321.526 20.5738 310.559 23.234 271.717 17.0951C232.875 10.9561 205.914 12.7978 171.185 23.234C136.455 33.6702 100.812 30.8054 72.9372 17.0951Z" fill="#6B21A8"/>
</svg>
