<svg width="27" height="22" viewBox="0 0 27 22" fill="none" xmlns="http://www.w3.org/2000/svg">
<g filter="url(#filter0_d_1313_2596)">
<path d="M22.4378 13.2069H21.7049V12.1476C21.7049 11.9526 21.5322 11.7945 21.3192 11.7945H19.7763C19.5632 11.7945 19.3906 11.9526 19.3906 12.1476V13.2069H18.5911C18.4033 12.0107 17.2768 11.0883 15.919 11.0883H15.3018C15.3018 11.0883 15.299 8.74836 15.2938 8.7251C15.3399 8.20164 15.1452 7.66354 14.7087 7.26396L12.6699 5.39758L15.084 3.18773C15.2035 3.07835 15.3006 2.95608 15.3754 2.82584H17.7706C17.9836 2.82584 18.1563 2.66777 18.1563 2.47274V2.1197H19.0563V2.47334C19.0563 2.59951 19.1299 2.71606 19.2492 2.77913L20.5864 3.48581C20.6461 3.51734 20.7126 3.53312 20.7793 3.53312C20.8459 3.53312 20.9125 3.51734 20.9721 3.48581L22.3093 2.7791C22.4938 2.6816 22.5571 2.46564 22.4505 2.29676C22.344 2.12788 22.1081 2.06999 21.9236 2.16753L20.7793 2.77226L19.8278 2.26943V1.26367L20.7793 0.760835L21.9236 1.36561C22.1081 1.46314 22.344 1.40525 22.4505 1.23637C22.5571 1.0675 22.4938 0.851534 22.3093 0.754037L20.9721 0.0473266C20.8528 -0.0157755 20.7057 -0.0157755 20.5864 0.0473266L19.2492 0.754037C19.1299 0.817106 19.0563 0.933651 19.0563 1.05982V1.41346H18.1563V1.06036C18.1563 0.865333 17.9836 0.707257 17.7706 0.707257H14.4559C13.8826 0.528451 13.222 0.647723 12.7656 1.06548L9.95941 3.63432C8.9207 3.8027 8.12904 4.6345 8.12904 5.63296C8.12904 6.30094 8.48342 6.89447 9.02893 7.2647C9.09743 7.35557 9.17555 7.44209 9.26379 7.5229L11.3763 9.45662V11.0883H10.9046C9.54673 11.0883 8.42026 12.0107 8.23246 13.2069H7.43298V12.1476C7.43298 11.9526 7.26029 11.7945 7.04724 11.7945H5.50434C5.29129 11.7945 5.1186 11.9526 5.1186 12.1476V13.2069H4.38574C4.17268 13.2068 4 13.3649 4 13.5599C4 13.755 4.17268 13.913 4.38574 13.913H22.4378C22.6508 13.913 22.8235 13.755 22.8235 13.5599C22.8235 13.3649 22.6508 13.2069 22.4378 13.2069ZM17.3848 1.41346V2.11967H15.5631C15.5619 1.87625 15.4964 1.63313 15.3669 1.41346H17.3848ZM6.66151 13.2069H5.89007V12.5007H6.66154L6.66151 13.2069ZM13.3111 1.56484C13.475 1.41478 13.6929 1.33215 13.9247 1.33215C14.1566 1.33215 14.3745 1.41478 14.5384 1.56484C14.8768 1.8746 14.8768 2.37861 14.5384 2.6884L12.3243 4.7152C12.0526 4.22661 11.5715 3.85153 10.9896 3.68992L13.3111 1.56484ZM8.9004 5.63296C8.9004 4.90286 9.5493 4.30886 10.3469 4.30886C11.1445 4.30886 11.7933 4.90286 11.7933 5.63296C11.7933 6.36306 11.1445 6.95706 10.3469 6.95706C9.54926 6.95706 8.9004 6.36306 8.9004 5.63296ZM10.5021 7.65772C11.4357 7.59828 12.2118 7.00795 12.4715 6.21478L14.1632 7.76332C14.652 8.21076 14.652 8.93878 14.1632 9.38621C13.9264 9.60295 13.6116 9.72232 13.2768 9.72232C12.9419 9.72232 12.6271 9.60295 12.3903 9.38621L10.5021 7.65772ZM14.5304 10.0302V11.0884H12.1477V10.1135C12.4878 10.3227 12.8821 10.4277 13.2768 10.4277C13.7206 10.4277 14.1642 10.2949 14.5304 10.0302ZM9.01463 13.2069C9.19386 12.402 9.97316 11.7945 10.9046 11.7945H15.919C16.8504 11.7945 17.6297 12.402 17.8089 13.2069H9.01463ZM20.9335 13.2069H20.162V12.5007H20.9335V13.2069Z" fill="white"/>
<path d="M10.3462 5.28027C10.1335 5.28027 9.96045 5.43869 9.96045 5.63338C9.96045 5.82807 10.1335 5.98648 10.3462 5.98648C10.5589 5.98648 10.7319 5.82807 10.7319 5.63338C10.7319 5.43869 10.5589 5.28027 10.3462 5.28027Z" fill="white"/>
</g>
<path d="M6.54537 20.0439C6.49204 20.0439 6.46537 20.0173 6.46537 19.9639V14.5239C6.46537 14.4706 6.49204 14.4439 6.54537 14.4439H8.48137C9.03604 14.4439 9.47871 14.5906 9.80937 14.8839C10.14 15.1719 10.3054 15.5586 10.3054 16.0439V18.4439C10.3054 18.9293 10.14 19.3186 9.80937 19.6119C9.47871 19.8999 9.03604 20.0439 8.48137 20.0439H6.54537ZM7.23337 19.3479C7.23337 19.3693 7.24404 19.3799 7.26537 19.3799H8.51338C8.82271 19.3799 9.06804 19.2866 9.24937 19.0999C9.43604 18.9079 9.53204 18.6519 9.53737 18.3319V16.1559C9.53737 15.8359 9.44404 15.5826 9.25738 15.3959C9.07604 15.2039 8.82804 15.1079 8.51338 15.1079H7.26537C7.24404 15.1079 7.23337 15.1186 7.23337 15.1399V19.3479ZM13.9951 20.1159C13.6111 20.1159 13.2697 20.0413 12.9711 19.8919C12.6777 19.7373 12.4484 19.5213 12.2831 19.2439C12.1231 18.9613 12.0431 18.6386 12.0431 18.2759V16.2039C12.0431 15.8413 12.1231 15.5239 12.2831 15.2519C12.4484 14.9746 12.6777 14.7613 12.9711 14.6119C13.2697 14.4573 13.6111 14.3799 13.9951 14.3799C14.3791 14.3799 14.7177 14.4546 15.0111 14.6039C15.3044 14.7479 15.5311 14.9533 15.6911 15.2199C15.8564 15.4866 15.9391 15.7959 15.9391 16.1479V16.1559C15.9391 16.1826 15.9311 16.2039 15.9151 16.2199C15.8991 16.2359 15.8804 16.2439 15.8591 16.2439L15.2511 16.2759C15.1977 16.2759 15.1711 16.2519 15.1711 16.2039V16.1799C15.1711 15.8386 15.0644 15.5639 14.8511 15.3559C14.6377 15.1479 14.3524 15.0439 13.9951 15.0439C13.6377 15.0439 13.3497 15.1479 13.1311 15.3559C12.9177 15.5639 12.8111 15.8386 12.8111 16.1799V18.3079C12.8111 18.6493 12.9177 18.9239 13.1311 19.1319C13.3497 19.3399 13.6377 19.4439 13.9951 19.4439C14.3524 19.4439 14.6377 19.3399 14.8511 19.1319C15.0644 18.9239 15.1711 18.6493 15.1711 18.3079V18.2919C15.1711 18.2439 15.1977 18.2199 15.2511 18.2199L15.8591 18.2519C15.9124 18.2519 15.9391 18.2786 15.9391 18.3319C15.9391 18.6839 15.8564 18.9959 15.6911 19.2679C15.5311 19.5346 15.3044 19.7426 15.0111 19.8919C14.7177 20.0413 14.3791 20.1159 13.9951 20.1159ZM21.2076 20.0439C21.1596 20.0439 21.1276 20.0226 21.1116 19.9799L20.8236 19.0439C20.8182 19.0279 20.8076 19.0199 20.7916 19.0199H18.5436C18.5276 19.0199 18.5169 19.0279 18.5116 19.0439L18.2236 19.9799C18.2076 20.0226 18.1756 20.0439 18.1276 20.0439H17.4796C17.4209 20.0439 17.3996 20.0146 17.4156 19.9559L19.1676 14.5079C19.1836 14.4653 19.2156 14.4439 19.2636 14.4439H20.0636C20.1116 14.4439 20.1436 14.4653 20.1596 14.5079L21.9276 19.9559L21.9356 19.9879C21.9356 20.0253 21.9116 20.0439 21.8636 20.0439H21.2076ZM18.7116 18.3719C18.7062 18.3826 18.7062 18.3933 18.7116 18.4039C18.7222 18.4093 18.7329 18.4119 18.7436 18.4119H20.5836C20.5942 18.4119 20.6022 18.4093 20.6076 18.4039C20.6182 18.3933 20.6209 18.3826 20.6156 18.3719L19.6876 15.4039C19.6822 15.3933 19.6742 15.3879 19.6636 15.3879C19.6529 15.3879 19.6449 15.3933 19.6396 15.4039L18.7116 18.3719Z" fill="white"/>
<defs>
<filter id="filter0_d_1313_2596" x="0" y="0" width="26.8235" height="21.9131" filterUnits="userSpaceOnUse" color-interpolation-filters="sRGB">
<feFlood flood-opacity="0" result="BackgroundImageFix"/>
<feColorMatrix in="SourceAlpha" type="matrix" values="0 0 0 0 0 0 0 0 0 0 0 0 0 0 0 0 0 0 127 0" result="hardAlpha"/>
<feOffset dy="4"/>
<feGaussianBlur stdDeviation="2"/>
<feComposite in2="hardAlpha" operator="out"/>
<feColorMatrix type="matrix" values="0 0 0 0 0 0 0 0 0 0 0 0 0 0 0 0 0 0 0.25 0"/>
<feBlend mode="normal" in2="BackgroundImageFix" result="effect1_dropShadow_1313_2596"/>
<feBlend mode="normal" in="SourceGraphic" in2="effect1_dropShadow_1313_2596" result="shape"/>
</filter>
</defs>
</svg>
