<svg width="17" height="17" viewBox="0 0 17 17" fill="none" xmlns="http://www.w3.org/2000/svg">
<g clip-path="url(#clip0_1313_2567)">
<path d="M15.8667 4.33013C15.7875 4.01374 15.6263 3.72384 15.3992 3.48973C15.1721 3.25562 14.8872 3.08559 14.5734 2.9968C13.4267 2.7168 8.84006 2.7168 8.84006 2.7168C8.84006 2.7168 4.2534 2.7168 3.10673 3.02346C2.79289 3.11225 2.50805 3.28229 2.28096 3.5164C2.05387 3.75051 1.89259 4.0404 1.8134 4.3568C1.60354 5.5205 1.50089 6.701 1.50673 7.88346C1.49925 9.07483 1.60191 10.2643 1.8134 11.4368C1.9007 11.7434 2.0656 12.0222 2.29216 12.2465C2.51872 12.4707 2.79928 12.6327 3.10673 12.7168C4.2534 13.0235 8.84006 13.0235 8.84006 13.0235C8.84006 13.0235 13.4267 13.0235 14.5734 12.7168C14.8872 12.628 15.1721 12.458 15.3992 12.2239C15.6263 11.9897 15.7875 11.6999 15.8667 11.3835C16.075 10.2285 16.1776 9.05702 16.1734 7.88346C16.1809 6.6921 16.0782 5.5026 15.8667 4.33013Z" stroke="white" stroke-width="1.33333" stroke-linecap="round" stroke-linejoin="round"/>
<path d="M7.34009 10.0631L11.1734 7.88313L7.34009 5.70312V10.0631Z" stroke="white" stroke-width="1.33333" stroke-linecap="round" stroke-linejoin="round"/>
</g>
<defs>
<clipPath id="clip0_1313_2567">
<rect width="16" height="16" fill="white" transform="translate(0.840088 0.0498047)"/>
</clipPath>
</defs>
</svg>
